<mxfile modified="2022-05-08T23:24:20.105Z" host="app.diagrams.net" agent="5.0 (Windows NT 10.0; Win64; x64) AppleWebKit/537.36 (KHTML, like Gecko) Chrome/101.0.4951.54 Safari/537.36 Edg/101.0.1210.39" etag="o5mmqiGpbbiVYxIdNfI2" compressed="false" version="18.0.2" type="google">
  <diagram id="akLhjUxt5x2lpGgRe6ef" name="Disaster Recovery/RPO &amp; RTO">
    <mxGraphModel grid="1" page="1" gridSize="10" guides="1" tooltips="1" connect="1" arrows="1" fold="1" pageScale="1" pageWidth="827" pageHeight="1169" math="0" shadow="0">
      <root>
        <mxCell id="y3m0MQ7EtKnkBDsaolDr-0" />
        <mxCell id="y3m0MQ7EtKnkBDsaolDr-1" parent="y3m0MQ7EtKnkBDsaolDr-0" />
        <mxCell id="y3m0MQ7EtKnkBDsaolDr-15" value="Untitled Layer" parent="y3m0MQ7EtKnkBDsaolDr-0" />
        <mxCell id="y3m0MQ7EtKnkBDsaolDr-28" value="" style="shape=flexArrow;endArrow=classic;html=1;endWidth=21;endSize=6.2;width=31;verticalAlign=bottom;fillColor=#f5f5f5;strokeColor=#666666;" edge="1" parent="y3m0MQ7EtKnkBDsaolDr-15">
          <mxGeometry width="50" height="50" relative="1" as="geometry">
            <mxPoint x="140" y="280" as="sourcePoint" />
            <mxPoint x="680" y="280" as="targetPoint" />
          </mxGeometry>
        </mxCell>
        <mxCell id="y3m0MQ7EtKnkBDsaolDr-29" value="Time" style="text;html=1;strokeColor=none;fillColor=none;align=center;verticalAlign=middle;whiteSpace=wrap;rounded=0;fontStyle=1;rotation=-90;" vertex="1" parent="y3m0MQ7EtKnkBDsaolDr-15">
          <mxGeometry x="110" y="270" width="40" height="20" as="geometry" />
        </mxCell>
        <mxCell id="y3m0MQ7EtKnkBDsaolDr-38" value="&lt;b&gt;Lost&lt;br&gt;Data&lt;br&gt;&lt;/b&gt;" style="text;html=1;strokeColor=none;fillColor=none;align=center;verticalAlign=middle;whiteSpace=wrap;rounded=0;" vertex="1" parent="y3m0MQ7EtKnkBDsaolDr-15">
          <mxGeometry x="289" y="240" width="40" height="20" as="geometry" />
        </mxCell>
        <mxCell id="y3m0MQ7EtKnkBDsaolDr-41" value="&lt;b&gt;Lost&amp;nbsp; Service&lt;br&gt;&lt;/b&gt;" style="text;html=1;strokeColor=none;fillColor=none;align=center;verticalAlign=middle;whiteSpace=wrap;rounded=0;" vertex="1" parent="y3m0MQ7EtKnkBDsaolDr-15">
          <mxGeometry x="449" y="240" width="40" height="20" as="geometry" />
        </mxCell>
        <mxCell id="y3m0MQ7EtKnkBDsaolDr-42" value="&lt;b&gt;Disaster&lt;br&gt;Point&lt;br&gt;&lt;/b&gt;" style="text;html=1;strokeColor=none;fillColor=none;align=center;verticalAlign=middle;whiteSpace=wrap;rounded=0;" vertex="1" parent="y3m0MQ7EtKnkBDsaolDr-15">
          <mxGeometry x="330" y="310" width="40" height="20" as="geometry" />
        </mxCell>
        <mxCell id="H_qsaJLeh_QgxFdLLi3h-0" value="&lt;font style=&quot;font-size: 12px&quot;&gt;&lt;span style=&quot;font-size: 12px&quot;&gt;Diagram: Base System Logical Module - Resilience - RPO &amp;amp; RTO&amp;nbsp;&lt;/span&gt;&lt;/font&gt;" style="text;strokeColor=none;fillColor=none;html=1;fontSize=24;fontStyle=2;verticalAlign=middle;align=left;shadow=0;glass=0;comic=0;opacity=30;fontColor=#808080;" vertex="1" parent="y3m0MQ7EtKnkBDsaolDr-15">
          <mxGeometry x="120" y="500" width="520" height="20" as="geometry" />
        </mxCell>
        <mxCell id="H_qsaJLeh_QgxFdLLi3h-2" value="" style="shape=curlyBracket;whiteSpace=wrap;html=1;rounded=1;fontColor=#00CC00;rotation=-90;verticalAlign=middle;horizontal=0;" vertex="1" parent="y3m0MQ7EtKnkBDsaolDr-15">
          <mxGeometry x="254.69" y="334.68" width="20" height="90.63" as="geometry" />
        </mxCell>
        <mxCell id="H_qsaJLeh_QgxFdLLi3h-3" value="" style="shape=curlyBracket;whiteSpace=wrap;html=1;rounded=1;fontColor=#00CC00;rotation=-90;verticalAlign=middle;horizontal=0;" vertex="1" parent="y3m0MQ7EtKnkBDsaolDr-15">
          <mxGeometry x="460" y="260" width="20" height="240" as="geometry" />
        </mxCell>
        <mxCell id="H_qsaJLeh_QgxFdLLi3h-4" value="Implemented Agreed RPO" style="text;html=1;strokeColor=none;fillColor=none;align=center;verticalAlign=middle;whiteSpace=wrap;rounded=0;" vertex="1" parent="y3m0MQ7EtKnkBDsaolDr-15">
          <mxGeometry x="240" y="400" width="40" height="20" as="geometry" />
        </mxCell>
        <mxCell id="H_qsaJLeh_QgxFdLLi3h-5" value="Recovery Achieved Within&lt;br&gt;Max RTO" style="text;html=1;strokeColor=none;fillColor=none;align=center;verticalAlign=middle;whiteSpace=wrap;rounded=0;" vertex="1" parent="y3m0MQ7EtKnkBDsaolDr-15">
          <mxGeometry x="450" y="420" width="40" height="20" as="geometry" />
        </mxCell>
        <mxCell id="y3m0MQ7EtKnkBDsaolDr-16" value="Untitled Layer" parent="y3m0MQ7EtKnkBDsaolDr-0" />
        <mxCell id="y3m0MQ7EtKnkBDsaolDr-17" value="" style="endArrow=classic;html=1;fillColor=#f8cecc;strokeColor=#b85450;strokeWidth=3;" edge="1" parent="y3m0MQ7EtKnkBDsaolDr-16">
          <mxGeometry width="50" height="50" relative="1" as="geometry">
            <mxPoint x="300" y="280" as="sourcePoint" />
            <mxPoint x="350" y="280" as="targetPoint" />
          </mxGeometry>
        </mxCell>
        <mxCell id="y3m0MQ7EtKnkBDsaolDr-18" value="" style="shape=image;html=1;verticalAlign=top;verticalLabelPosition=bottom;labelBackgroundColor=#ffffff;imageAspect=0;aspect=fixed;image=https://cdn1.iconfinder.com/data/icons/hawcons/32/698953-icon-109-document-zip-128.png" vertex="1" parent="y3m0MQ7EtKnkBDsaolDr-16">
          <mxGeometry x="120" y="320" width="40" height="40" as="geometry" />
        </mxCell>
        <mxCell id="y3m0MQ7EtKnkBDsaolDr-19" value="" style="endArrow=classic;html=1;fontColor=#00CC00;strokeColor=#009900;strokeWidth=3;" edge="1" parent="y3m0MQ7EtKnkBDsaolDr-16">
          <mxGeometry width="50" height="50" relative="1" as="geometry">
            <mxPoint x="140" y="280" as="sourcePoint" />
            <mxPoint x="220" y="280" as="targetPoint" />
          </mxGeometry>
        </mxCell>
        <mxCell id="y3m0MQ7EtKnkBDsaolDr-20" value="" style="shape=image;html=1;verticalAlign=top;verticalLabelPosition=bottom;labelBackgroundColor=#ffffff;imageAspect=0;aspect=fixed;image=https://cdn2.iconfinder.com/data/icons/nasty/60/apocolypse_nuclear_explosion_atomic_bomb-128.png" vertex="1" parent="y3m0MQ7EtKnkBDsaolDr-16">
          <mxGeometry x="320" y="240" width="58" height="58" as="geometry" />
        </mxCell>
        <mxCell id="y3m0MQ7EtKnkBDsaolDr-21" value="" style="shape=image;html=1;verticalAlign=top;verticalLabelPosition=bottom;labelBackgroundColor=#ffffff;imageAspect=0;aspect=fixed;image=https://cdn1.iconfinder.com/data/icons/hawcons/32/698953-icon-109-document-zip-128.png" vertex="1" parent="y3m0MQ7EtKnkBDsaolDr-16">
          <mxGeometry x="200" y="320" width="40" height="40" as="geometry" />
        </mxCell>
        <mxCell id="y3m0MQ7EtKnkBDsaolDr-22" value="" style="shape=image;html=1;verticalAlign=top;verticalLabelPosition=bottom;labelBackgroundColor=#ffffff;imageAspect=0;aspect=fixed;image=https://cdn1.iconfinder.com/data/icons/hawcons/32/698953-icon-109-document-zip-128.png" vertex="1" parent="y3m0MQ7EtKnkBDsaolDr-16">
          <mxGeometry x="280" y="320" width="40" height="40" as="geometry" />
        </mxCell>
        <mxCell id="y3m0MQ7EtKnkBDsaolDr-23" value="" style="endArrow=classic;html=1;fontColor=#00CC00;strokeColor=#009900;strokeWidth=3;" edge="1" parent="y3m0MQ7EtKnkBDsaolDr-16">
          <mxGeometry width="50" height="50" relative="1" as="geometry">
            <mxPoint x="220" y="280" as="sourcePoint" />
            <mxPoint x="300" y="280" as="targetPoint" />
          </mxGeometry>
        </mxCell>
        <mxCell id="y3m0MQ7EtKnkBDsaolDr-24" value="" style="endArrow=classic;html=1;strokeColor=#009900;strokeWidth=3;" edge="1" parent="y3m0MQ7EtKnkBDsaolDr-16">
          <mxGeometry width="50" height="50" relative="1" as="geometry">
            <mxPoint x="560" y="280" as="sourcePoint" />
            <mxPoint x="640" y="280" as="targetPoint" />
          </mxGeometry>
        </mxCell>
        <mxCell id="y3m0MQ7EtKnkBDsaolDr-26" value="" style="shape=image;html=1;verticalAlign=top;verticalLabelPosition=bottom;labelBackgroundColor=#ffffff;imageAspect=0;aspect=fixed;image=https://cdn1.iconfinder.com/data/icons/hawcons/32/698953-icon-109-document-zip-128.png" vertex="1" parent="y3m0MQ7EtKnkBDsaolDr-16">
          <mxGeometry x="620" y="320" width="40" height="40" as="geometry" />
        </mxCell>
        <mxCell id="y3m0MQ7EtKnkBDsaolDr-27" value="" style="endArrow=classic;html=1;strokeColor=#009900;strokeWidth=3;" edge="1" parent="y3m0MQ7EtKnkBDsaolDr-16">
          <mxGeometry width="50" height="50" relative="1" as="geometry">
            <mxPoint x="640" y="280" as="sourcePoint" />
            <mxPoint x="680" y="280" as="targetPoint" />
          </mxGeometry>
        </mxCell>
        <mxCell id="y3m0MQ7EtKnkBDsaolDr-40" value="" style="endArrow=none;html=1;fillColor=#f8cecc;strokeColor=#b85450;strokeWidth=2;dashed=1;endFill=0;" edge="1" parent="y3m0MQ7EtKnkBDsaolDr-16">
          <mxGeometry width="50" height="50" relative="1" as="geometry">
            <mxPoint x="350" y="280" as="sourcePoint" />
            <mxPoint x="560" y="280" as="targetPoint" />
          </mxGeometry>
        </mxCell>
        <mxCell id="kSI8klKFVKtI0y-L968L-0" value="&lt;font style=&quot;font-size: 12px&quot;&gt;Last Recovery Point&lt;/font&gt;" style="strokeWidth=1;shadow=0;dashed=0;align=center;html=1;shape=mxgraph.mockup.text.callout;linkText=;textSize=17;textColor=#666666;callDir=NW;callStyle=line;fontSize=17;fontColor=#666666;align=left;verticalAlign=top;strokeColor=#666666;" vertex="1" parent="y3m0MQ7EtKnkBDsaolDr-16">
          <mxGeometry x="140" y="170" width="160" height="110" as="geometry" />
        </mxCell>
        <mxCell id="kSI8klKFVKtI0y-L968L-2" value="&lt;font style=&quot;font-size: 12px&quot;&gt;Recovered Here&lt;/font&gt;" style="strokeWidth=1;shadow=0;dashed=0;align=center;html=1;shape=mxgraph.mockup.text.callout;linkText=;textSize=17;textColor=#666666;callDir=NW;callStyle=line;fontSize=17;fontColor=#666666;align=left;verticalAlign=top;strokeColor=#666666;" vertex="1" parent="y3m0MQ7EtKnkBDsaolDr-16">
          <mxGeometry x="400" y="170" width="160" height="110" as="geometry" />
        </mxCell>
      </root>
    </mxGraphModel>
  </diagram>
</mxfile>
